<svg xmlns="http://www.w3.org/2000/svg" viewBox="0 0 24 24" width="24" height="24" color="#000000" fill="none">
    <defs />
    <path fill="#141B34" d="M16.069,6.949 C17.386,7.796 18.432,8.468 19.176,9.084 C19.932,9.71 20.49,10.367 20.669,11.22 C20.777,11.734 20.777,12.266 20.669,12.78 C20.49,13.633 19.932,14.29 19.176,14.917 C18.432,15.532 17.386,16.205 16.069,17.051 L15.98,17.108 C14.546,18.03 13.411,18.76 12.484,19.208 C11.552,19.658 10.666,19.908 9.791,19.64 C9.275,19.483 8.802,19.206 8.408,18.833 C7.747,18.21 7.491,17.315 7.37,16.257 C7.25,15.203 7.25,13.814 7.25,12.051 L7.25,11.949 C7.25,10.186 7.25,8.797 7.37,7.743 C7.491,6.686 7.747,5.79 8.408,5.167 C8.802,4.794 9.275,4.518 9.791,4.36 C10.666,4.092 11.552,4.342 12.484,4.793 C13.411,5.24 14.546,5.97 15.98,6.892 Z M10.23,5.794 C9.938,5.884 9.667,6.041 9.437,6.258 C9.175,6.505 8.971,6.947 8.86,7.913 C8.751,8.872 8.75,10.175 8.75,12 C8.75,13.825 8.751,15.128 8.86,16.087 C8.971,17.053 9.175,17.496 9.437,17.742 C9.667,17.959 9.938,18.117 10.23,18.206 C10.547,18.303 10.994,18.262 11.832,17.857 C12.666,17.454 13.725,16.775 15.214,15.817 C16.584,14.937 17.553,14.312 18.219,13.761 C18.88,13.214 19.126,12.83 19.201,12.472 C19.266,12.161 19.266,11.839 19.201,11.528 C19.126,11.17 18.88,10.786 18.219,10.239 C17.553,9.688 16.584,9.064 15.214,8.183 C13.725,7.225 12.666,6.546 11.832,6.143 C10.994,5.738 10.547,5.697 10.23,5.794 Z M4.75,5 L4.75,19 C4.75,19.414 4.414,19.75 4,19.75 C3.586,19.75 3.25,19.414 3.25,19 L3.25,5 C3.25,4.586 3.586,4.25 4,4.25 C4.414,4.25 4.75,4.586 4.75,5 Z" />
</svg>